<mxfile host="app.diagrams.net" agent="Mozilla/5.0 (Windows NT 10.0; Win64; x64) AppleWebKit/537.36 (KHTML, like Gecko) Chrome/128.0.0.0 Safari/537.36" version="24.7.7">
  <diagram name="Page-1" id="JxampNL0Ej3k2KaPyQAo">
    <mxGraphModel dx="774" dy="459" grid="1" gridSize="10" guides="1" tooltips="1" connect="1" arrows="1" fold="1" page="1" pageScale="1" pageWidth="827" pageHeight="1169" math="0" shadow="0">
      <root>
        <mxCell id="0" />
        <mxCell id="1" parent="0" />
        <mxCell id="fvj22ZWd0LQlKyJpi2xt-1" value="Local PC" style="rounded=0;whiteSpace=wrap;html=1;" vertex="1" parent="1">
          <mxGeometry x="360" y="440" width="120" height="60" as="geometry" />
        </mxCell>
        <mxCell id="fvj22ZWd0LQlKyJpi2xt-2" value="" style="triangle;whiteSpace=wrap;html=1;direction=north;" vertex="1" parent="1">
          <mxGeometry x="390" y="500" width="60" height="50" as="geometry" />
        </mxCell>
        <mxCell id="fvj22ZWd0LQlKyJpi2xt-3" value="R-Pi&amp;nbsp;&lt;br&gt;&lt;br&gt;64 GB&lt;br&gt;&lt;br&gt;SSH + Web Application(Host)" style="rounded=0;whiteSpace=wrap;html=1;" vertex="1" parent="1">
          <mxGeometry x="100" y="120" width="190" height="150" as="geometry" />
        </mxCell>
        <mxCell id="fvj22ZWd0LQlKyJpi2xt-9" value="" style="edgeStyle=orthogonalEdgeStyle;rounded=0;orthogonalLoop=1;jettySize=auto;html=1;entryX=0.998;entryY=0.192;entryDx=0;entryDy=0;entryPerimeter=0;" edge="1" parent="1" source="fvj22ZWd0LQlKyJpi2xt-4" target="fvj22ZWd0LQlKyJpi2xt-3">
          <mxGeometry relative="1" as="geometry">
            <Array as="points">
              <mxPoint x="320" y="148" />
              <mxPoint x="320" y="149" />
            </Array>
          </mxGeometry>
        </mxCell>
        <mxCell id="fvj22ZWd0LQlKyJpi2xt-11" value="" style="edgeStyle=orthogonalEdgeStyle;rounded=0;orthogonalLoop=1;jettySize=auto;html=1;entryX=0;entryY=0.25;entryDx=0;entryDy=0;" edge="1" parent="1" source="fvj22ZWd0LQlKyJpi2xt-4" target="fvj22ZWd0LQlKyJpi2xt-6">
          <mxGeometry relative="1" as="geometry" />
        </mxCell>
        <mxCell id="fvj22ZWd0LQlKyJpi2xt-4" value="UART" style="rounded=0;whiteSpace=wrap;html=1;" vertex="1" parent="1">
          <mxGeometry x="350" y="130" width="100" height="55" as="geometry" />
        </mxCell>
        <mxCell id="fvj22ZWd0LQlKyJpi2xt-12" value="" style="edgeStyle=orthogonalEdgeStyle;rounded=0;orthogonalLoop=1;jettySize=auto;html=1;" edge="1" parent="1" source="fvj22ZWd0LQlKyJpi2xt-5" target="fvj22ZWd0LQlKyJpi2xt-6">
          <mxGeometry relative="1" as="geometry" />
        </mxCell>
        <mxCell id="fvj22ZWd0LQlKyJpi2xt-15" value="" style="edgeStyle=orthogonalEdgeStyle;rounded=0;orthogonalLoop=1;jettySize=auto;html=1;" edge="1" parent="1" source="fvj22ZWd0LQlKyJpi2xt-5" target="fvj22ZWd0LQlKyJpi2xt-14">
          <mxGeometry relative="1" as="geometry" />
        </mxCell>
        <mxCell id="fvj22ZWd0LQlKyJpi2xt-5" value="Power" style="rounded=0;whiteSpace=wrap;html=1;" vertex="1" parent="1">
          <mxGeometry x="350" y="205" width="100" height="55" as="geometry" />
        </mxCell>
        <mxCell id="fvj22ZWd0LQlKyJpi2xt-13" value="" style="edgeStyle=orthogonalEdgeStyle;rounded=0;orthogonalLoop=1;jettySize=auto;html=1;" edge="1" parent="1" source="fvj22ZWd0LQlKyJpi2xt-6" target="fvj22ZWd0LQlKyJpi2xt-7">
          <mxGeometry relative="1" as="geometry" />
        </mxCell>
        <mxCell id="fvj22ZWd0LQlKyJpi2xt-6" value="Debugger" style="rounded=0;whiteSpace=wrap;html=1;" vertex="1" parent="1">
          <mxGeometry x="490" y="147.5" width="130" height="77.5" as="geometry" />
        </mxCell>
        <mxCell id="fvj22ZWd0LQlKyJpi2xt-7" value="DQC/ITE Board" style="rounded=0;whiteSpace=wrap;html=1;" vertex="1" parent="1">
          <mxGeometry x="650" y="113.75" width="140" height="145" as="geometry" />
        </mxCell>
        <mxCell id="fvj22ZWd0LQlKyJpi2xt-14" value="Relay" style="rounded=0;whiteSpace=wrap;html=1;" vertex="1" parent="1">
          <mxGeometry x="350" y="290" width="100" height="50" as="geometry" />
        </mxCell>
        <mxCell id="fvj22ZWd0LQlKyJpi2xt-16" value="" style="endArrow=classic;html=1;rounded=0;exitX=0;exitY=0.5;exitDx=0;exitDy=0;entryX=0.5;entryY=1;entryDx=0;entryDy=0;" edge="1" parent="1" source="fvj22ZWd0LQlKyJpi2xt-14" target="fvj22ZWd0LQlKyJpi2xt-3">
          <mxGeometry width="50" height="50" relative="1" as="geometry">
            <mxPoint x="430" y="300" as="sourcePoint" />
            <mxPoint x="480" y="250" as="targetPoint" />
            <Array as="points">
              <mxPoint x="195" y="315" />
            </Array>
          </mxGeometry>
        </mxCell>
        <mxCell id="fvj22ZWd0LQlKyJpi2xt-17" value="" style="endArrow=none;dashed=1;html=1;dashPattern=1 3;strokeWidth=2;rounded=0;exitX=0.293;exitY=1.021;exitDx=0;exitDy=0;exitPerimeter=0;entryX=0.5;entryY=0;entryDx=0;entryDy=0;" edge="1" parent="1" source="fvj22ZWd0LQlKyJpi2xt-3" target="fvj22ZWd0LQlKyJpi2xt-1">
          <mxGeometry width="50" height="50" relative="1" as="geometry">
            <mxPoint x="430" y="400" as="sourcePoint" />
            <mxPoint x="480" y="350" as="targetPoint" />
            <Array as="points">
              <mxPoint x="156" y="410" />
              <mxPoint x="420" y="410" />
            </Array>
          </mxGeometry>
        </mxCell>
        <mxCell id="fvj22ZWd0LQlKyJpi2xt-18" value="" style="endArrow=none;dashed=1;html=1;dashPattern=1 3;strokeWidth=2;rounded=0;exitX=0.293;exitY=1.021;exitDx=0;exitDy=0;exitPerimeter=0;" edge="1" parent="1">
          <mxGeometry width="50" height="50" relative="1" as="geometry">
            <mxPoint x="120" y="270" as="sourcePoint" />
            <mxPoint x="360" y="480" as="targetPoint" />
            <Array as="points">
              <mxPoint x="120" y="407" />
              <mxPoint x="120" y="480" />
              <mxPoint x="360" y="480" />
            </Array>
          </mxGeometry>
        </mxCell>
        <mxCell id="fvj22ZWd0LQlKyJpi2xt-19" value="Web App" style="text;html=1;align=center;verticalAlign=middle;whiteSpace=wrap;rounded=0;" vertex="1" parent="1">
          <mxGeometry x="280" y="450" width="60" height="30" as="geometry" />
        </mxCell>
        <mxCell id="fvj22ZWd0LQlKyJpi2xt-20" value="SSH" style="text;html=1;align=center;verticalAlign=middle;whiteSpace=wrap;rounded=0;" vertex="1" parent="1">
          <mxGeometry x="280" y="380" width="60" height="30" as="geometry" />
        </mxCell>
      </root>
    </mxGraphModel>
  </diagram>
</mxfile>
